<svg xmlns="http://www.w3.org/2000/svg" viewBox="0 0 16 10.962">
  <defs>
    <style>
      .cls-1 {
        fill: #e673e6;
      }
    </style>
  </defs>
  <g id="camion" transform="translate(0 -75.15)">
    <path id="Path_163" data-name="Path 163" class="cls-1" d="M15.128,77.678A2.856,2.856,0,0,0,13,76.786H10.8V75.552a.4.4,0,0,0-.4-.4H.4a.4.4,0,0,0-.4.4V84.4a.4.4,0,0,0,.4.4H2a1.582,1.582,0,0,0,3.118,0H11.28a1.582,1.582,0,0,0,3.118,0h1.2a.4.4,0,0,0,.4-.4V80.242A3.7,3.7,0,0,0,15.128,77.678ZM.8,75.955H10V84H5.052a1.58,1.58,0,0,0-2.977,0H.8Zm2.759,9.353a.778.778,0,1,1,.778-.778A.778.778,0,0,1,3.563,85.307Zm9.276,0a.778.778,0,1,1,.778-.778A.778.778,0,0,1,12.839,85.307ZM15.192,84h-.865a1.58,1.58,0,0,0-2.977,0H10.8V77.59H13c1.354,0,2.2,1.016,2.2,2.652V84Z"/>
  </g>
</svg>
