<?xml version="1.0" encoding="utf-8"?>
<!-- Generator: Adobe Illustrator 22.1.0, SVG Export Plug-In . SVG Version: 6.00 Build 0)  -->
<svg version="1.1" id="Capa_1" xmlns="http://www.w3.org/2000/svg" xmlns:xlink="http://www.w3.org/1999/xlink" x="0px" y="0px"
	 viewBox="0 0 458 197.3" style="enable-background:new 0 0 458 197.3;" xml:space="preserve">
<style type="text/css">
	.st0{fill:#BE5F00;}
	.st1{fill:#FF7800;}
	.st2{fill:#FFFFFF;}
	.st3{fill:#820A82;}
	.st4{fill:#A00AA0;}
	.st5{fill:#DCA000;}
	.st6{fill:#FAC805;}
	.st7{opacity:0.4;fill:#FFFFFF;}
	.st8{opacity:0.5;fill:#FFFFFF;}
</style>
<g>
	<g>
		<path class="st0" d="M352.8,48.7c0,26.9-21.8,48.7-48.7,48.7c-26.9,0-48.7-21.8-48.7-48.7c0-26.9,21.8-48.7,48.7-48.7
			C331,0,352.8,21.8,352.8,48.7z"/>
		<path class="st1" d="M350.2,48.7c0,25.4-20.6,46-46,46c-25.4,0-46-20.6-46-46c0-25.4,20.6-46,46-46
			C329.6,2.7,350.2,23.3,350.2,48.7z"/>
		<g>
			<g>
				<path class="st0" d="M285.9,40.6c0-4.8,3.9-8.6,8.6-8.6c4.8,0,8.6,3.9,8.6,8.6c0,4.8-3.9,8.7-8.6,8.7
					C289.8,49.3,285.9,45.4,285.9,40.6z"/>
				<path class="st0" d="M295.9,66.4c-0.6,0.6-1.3,0.8-2,0.8c-0.7,0-1.5-0.3-2-0.8c-1.1-1.1-1.1-2.9,0-4.1l24.5-24.5
					c1.1-1.1,3-1.1,4.1,0c1.1,1.1,1.1,2.9,0,4.1L295.9,66.4z"/>
				<path class="st0" d="M317.6,72.3c-4.8,0-8.6-3.9-8.6-8.6c0-4.8,3.9-8.6,8.6-8.6c4.8,0,8.6,3.9,8.6,8.6
					C326.3,68.5,322.4,72.3,317.6,72.3z"/>
			</g>
			<g>
				<path class="st2" d="M285.6,37.4c0-4.8,3.9-8.6,8.6-8.6c4.8,0,8.6,3.9,8.6,8.6c0,4.8-3.9,8.6-8.6,8.6
					C289.5,46,285.6,42.2,285.6,37.4z"/>
				<path class="st2" d="M295.6,63.2c-0.6,0.6-1.3,0.8-2,0.8c-0.7,0-1.5-0.3-2-0.8c-1.1-1.1-1.1-2.9,0-4.1L316,34.7
					c1.1-1.1,3-1.1,4.1,0c1.1,1.1,1.1,3,0,4.1L295.6,63.2z"/>
				<path class="st2" d="M317.3,69.1c-4.8,0-8.7-3.9-8.7-8.6s3.9-8.6,8.7-8.6c4.8,0,8.6,3.9,8.6,8.6S322.1,69.1,317.3,69.1z"/>
			</g>
		</g>
		<path class="st3" d="M202.6,48.7c0,26.9-21.8,48.7-48.7,48.7c-26.9,0-48.7-21.8-48.7-48.7C105.1,21.8,127,0,153.9,0
			C180.8,0,202.6,21.8,202.6,48.7z"/>
		<path class="st4" d="M199.8,48.7c0,25.4-20.6,46-46,46c-25.4,0-46-20.6-46-46c0-25.4,20.6-46,46-46
			C179.3,2.8,199.8,23.3,199.8,48.7z"/>
		<g>
			<g>
				<path class="st3" d="M157.6,35.1l-0.3-1.7c-1-6-6.6-10.1-12.6-9.1c-6,1-10.1,6.6-9.1,12.6l0.3,1.7l-7.9,1.3l5.1,31.6
					c0.6,3.8,4.2,6.4,8,5.8l23.8-3.8c3.8-0.6,6.4-4.2,5.8-8l-5.1-31.6L157.6,35.1z M139.8,46.2c-1.3,0.2-2.5-0.7-2.7-1.9
					c-0.2-1.3,0.7-2.5,1.9-2.7c1.3-0.2,2.5,0.7,2.7,1.9C141.9,44.8,141.1,46,139.8,46.2z M152.6,35.9l-11.7,1.9l-0.3-1.7
					c-0.5-3.2,1.7-6.3,4.9-6.8c3.2-0.5,6.3,1.7,6.8,4.9L152.6,35.9z M156.2,43.5c-1.3,0.2-2.5-0.7-2.7-1.9c-0.2-1.3,0.7-2.5,1.9-2.7
					c1.3-0.2,2.5,0.7,2.7,1.9C158.3,42.2,157.4,43.3,156.2,43.5z"/>
			</g>
			<g>
				<path class="st2" d="M160.5,32.3l-0.3-1.7c-1-6-6.6-10.1-12.6-9.1c-6,1-10.1,6.6-9.1,12.6l0.3,1.7l-7.9,1.3l5.1,31.6
					c0.6,3.8,4.2,6.4,8,5.8l23.8-3.8c3.8-0.6,6.4-4.2,5.8-8L168.4,31L160.5,32.3z M142.7,43.3c-1.3,0.2-2.5-0.7-2.7-1.9
					c-0.2-1.3,0.7-2.5,1.9-2.7c1.3-0.2,2.5,0.7,2.7,1.9C144.9,41.9,144,43.1,142.7,43.3z M155.5,33.1L143.8,35l-0.3-1.7
					c-0.5-3.2,1.7-6.3,4.9-6.8c3.2-0.5,6.3,1.7,6.8,4.9L155.5,33.1z M159.1,40.7c-1.3,0.2-2.5-0.7-2.7-1.9c-0.2-1.3,0.7-2.5,1.9-2.7
					c1.3-0.2,2.5,0.7,2.7,1.9C161.3,39.3,160.4,40.5,159.1,40.7z"/>
			</g>
		</g>
		<path class="st5" d="M277.7,48.7c0,26.9-21.8,48.7-48.7,48.7c-26.9,0-48.7-21.8-48.7-48.7C180.3,21.8,202.1,0,229,0
			C255.9,0,277.7,21.8,277.7,48.7z"/>
		<path class="st6" d="M275,48.7c0,25.4-20.6,46-46,46c-25.4,0-46-20.6-46-46c0-25.4,20.6-46,46-46C254.4,2.7,275,23.3,275,48.7z"/>
		<g>
			<g>
				<g>
					<g id="XMLID_3_">
						<path id="XMLID_4_" class="st5" d="M213.9,59.8c-0.7,0-1.2,1-0.9,1.8c1.4,4.5,5.9,15.8,17.1,15.7c11.2-0.1,15.7-11.4,17.1-16
							c0.3-0.9-0.2-1.8-0.9-1.8L213.9,59.8z"/>
					</g>
					<g>
						<path class="st5" d="M216.6,44.3c0,4-2.2,7.3-5,7.3c-2.8,0-5-3.3-5-7.3c0-4,2.2-7.3,5-7.3C214.3,36.9,216.6,40.2,216.6,44.3z"
							/>
						<path class="st5" d="M253.4,44.3c0,4-2.2,7.3-5,7.3c-2.8,0-5-3.3-5-7.3c0-4,2.2-7.3,5-7.3C251.1,36.9,253.4,40.2,253.4,44.3z"
							/>
					</g>
				</g>
				<g>
					<g id="XMLID_1_">
						<path id="XMLID_2_" class="st2" d="M212,57.9c-0.7,0-1.2,1-0.9,1.8c1.4,4.5,5.9,15.8,17.1,15.7c11.2-0.1,15.7-11.4,17.1-16
							c0.3-0.9-0.2-1.8-0.9-1.8L212,57.9z"/>
					</g>
					<g>
						<path class="st2" d="M214.6,42.3c0,4-2.2,7.3-5,7.3c-2.8,0-5-3.3-5-7.3c0-4,2.2-7.3,5-7.3C212.4,35,214.6,38.3,214.6,42.3z"/>
						<path class="st2" d="M251.4,42.3c0,4-2.2,7.3-5,7.3c-2.8,0-5-3.3-5-7.3c0-4,2.2-7.3,5-7.3C249.2,35,251.4,38.3,251.4,42.3z"/>
					</g>
				</g>
			</g>
		</g>
		<path class="st7" d="M169.9,87c0,0-23.5,12.1-41.7-4.6C128.2,82.4,144,103.4,169.9,87z"/>
		<path class="st8" d="M195.5,24.3c0,0,14.5-22,38.6-16.5C234.2,7.8,210-2.7,195.5,24.3z"/>
		<path class="st7" d="M342.1,31.1c0,0,12.6,23.2-3.7,41.8C338.4,72.9,359,56.6,342.1,31.1z"/>
	</g>
	<g>
		<g>
			<path d="M44.1,175.4c-5,4.9-11.4,7.2-18.4,7.2c-18,0-25.6-12.4-25.7-25C-0.1,144.9,8.2,132,25.7,132c6.6,0,12.8,2.5,17.8,7.4
				l-6.1,5.9c-3.2-3.1-7.5-4.6-11.7-4.6c-11.7,0-16.8,8.7-16.7,16.8c0.1,8,4.7,16.4,16.7,16.4c4.2,0,9-1.7,12.2-4.9L44.1,175.4z"/>
			<path d="M83,147.3l-20.8,48.4h-9.3l6.4-14.8l-13.6-33.6h9.8l5.2,14.7l3.3,9.6l3.5-9.4l6.2-15H83z"/>
			<path d="M95.9,133.1V152c2-3.5,7.6-5.5,11.2-5.5c10,0,17.4,6.1,17.4,17.9c0,11.2-7.5,17.9-17.6,17.9c-4.2,0-8.4-1.4-11-5.5
				l-0.6,4.7h-7.9v-48.4H95.9z M96.5,164.4c0,6.2,4.6,10,9.9,10c5.4,0,9.7-4.1,9.7-10c0-6.2-4.3-10-9.7-10
				C101,154.4,96.5,158.4,96.5,164.4z"/>
			<path d="M137.9,167.4c0.6,4.2,4.2,7.3,10.2,7.3c3.1,0,7.2-1.2,9.1-3.2l5.4,5.3c-3.6,3.7-9.5,5.5-14.7,5.5
				c-11.8,0-18.8-7.3-18.8-18.2c0-10.4,7.1-17.9,18.1-17.9c11.4,0,18.6,7.1,17.2,21.1H137.9z M156.5,160.4c-0.6-4.4-4-6.6-8.9-6.6
				c-4.6,0-8.3,2.2-9.6,6.6H156.5z"/>
			<path d="M178.9,147.3l0.6,3.9c2.6-4.2,6.2-4.8,9.6-4.8c3.5,0,6.9,1.4,8.8,3.3l-3.8,7.3c-1.7-1.5-3.3-2.2-6.1-2.2
				c-4.4,0-8.5,2.4-8.5,8.7v18h-8.4v-34.1H178.9z"/>
			<path d="M243.5,156.7c0.3,12.3-7.6,24.8-24.6,24.8c-5.5,0-10.9,0-16.4,0V133c5.5,0,10.9,0,16.4,0
				C235.3,133,243.2,144.8,243.5,156.7z M206.2,136.5v41.3h12.7c14.4,0,21-10.8,20.8-21.2c-0.2-10.1-6.9-20.2-20.8-20.2H206.2z"/>
			<path d="M284.9,147.2c0,11.4,0,22.8,0,34.2h-3.4v-7.3c-3.3,5.3-8.4,7.8-14,7.8c-9.6,0-17.4-7.2-17.4-17.7s7.8-17.5,17.4-17.5
				c5.5,0,11.1,2.6,14,7.9v-7.5H284.9z M253.5,164.4c0,8.6,6.2,14.3,14,14.3c19,0,19-28.6,0-28.6
				C259.7,150.1,253.5,155.8,253.5,164.4z"/>
			<path d="M321.8,147.2L301,195.7h-3.6l6.3-14.7L290,147.2h3.7l8,20.2l4,9.9l3.9-10l8.6-20.2H321.8z"/>
			<path d="M351.9,153.5c-3.5-3-6.9-3.6-10.7-3.6c-5.3-0.1-10.5,1.9-10.3,6.3c0.1,4.6,6.1,5.5,10.4,6.2c6.1,1,14.5,2.1,14.1,10
				c-0.2,7.5-8,9.6-14.1,9.6s-12-2.3-15-6.9l2.5-2.2c2.8,4.1,8,5.8,12.5,5.8c4.2,0,10.5-1.1,10.7-6.5c0.1-4.9-5.5-5.9-11.1-6.8
				c-6.6-1.1-13.2-2.4-13.3-9.2c-0.1-6.7,6.6-9.6,13.6-9.6c5,0,9.3,1.4,12.7,4.6L351.9,153.5z"/>
		</g>
		<g>
			<path d="M370.4,180.8c0,3.6-5.5,3.6-5.5,0C364.9,177.2,370.4,177.2,370.4,180.8z"/>
			<path d="M381.8,197.3v-48.9h3.4v8.2c2.7-5.2,8.2-8.7,15-8.7c9.4,0.3,16.8,6.6,16.8,17.7c0,11.6-7.8,17.9-17.5,17.9
				c-5.9,0-11.3-2.9-14.3-8.6v22.4H381.8z M413.4,165.7c0-9.7-6.3-14.5-14.1-14.5c-8,0-14,6.1-14,14.5c0,8.5,6.1,14.5,14,14.5
				C407.1,180.3,413.4,175.4,413.4,165.7z"/>
			<path d="M423.3,165.7c0-10.3,7.8-17.8,17.5-17.8c9.7,0,18.4,5.9,17,19.4h-31.1c0.7,8.1,6.9,12.8,14,12.8c4.5,0,9.9-1.8,12.4-5.2
				l2.4,2c-3.4,4.4-9.4,6.6-14.9,6.6C431.1,183.4,423.3,176.7,423.3,165.7z M454.8,164.3c-0.1-8.5-5.7-13.3-14-13.3
				c-7.1,0-13.3,4.8-14,13.3H454.8z"/>
		</g>
	</g>
</g>
</svg>
