<?xml version="1.0" encoding="utf-8"?>
<!-- Generator: Adobe Illustrator 22.1.0, SVG Export Plug-In . SVG Version: 6.00 Build 0)  -->
<svg version="1.1" id="Capa_1" xmlns="http://www.w3.org/2000/svg" xmlns:xlink="http://www.w3.org/1999/xlink" x="0px" y="0px"
	 viewBox="0 0 121.7 43.2" style="enable-background:new 0 0 121.7 43.2;" xml:space="preserve">
<style type="text/css">
	.st0{clip-path:url(#SVGID_2_);}
	.st1{clip-path:url(#SVGID_4_);fill:#241F1C;}
	.st2{clip-path:url(#SVGID_4_);fill-rule:evenodd;clip-rule:evenodd;fill:#F0C82F;}
	.st3{clip-path:url(#SVGID_4_);fill-rule:evenodd;clip-rule:evenodd;fill:#D2A928;}
	.st4{clip-path:url(#SVGID_4_);fill-rule:evenodd;clip-rule:evenodd;fill:#F4D883;}
	.st5{clip-path:url(#SVGID_4_);fill-rule:evenodd;clip-rule:evenodd;fill:#E1B62B;}
	.st6{clip-path:url(#SVGID_4_);fill:#222221;}
</style>
<g id="Ilustración_51_1_">
	<g>
		<defs>
			<rect id="SVGID_1_" width="121.7" height="43.2"/>
		</defs>
		<clipPath id="SVGID_2_">
			<use xlink:href="#SVGID_1_"  style="overflow:visible;"/>
		</clipPath>
		<g class="st0">
			<defs>
				<rect id="SVGID_3_" y="0" width="121.7" height="43.2"/>
			</defs>
			<clipPath id="SVGID_4_">
				<use xlink:href="#SVGID_3_"  style="overflow:visible;"/>
			</clipPath>
			<path class="st1" d="M59.5,2.1c-1.2-0.7-3-1.1-5.2-1.1c-2.1,0-4,0.1-5.5,0.3c-0.3,0-0.5,0.1-0.7,0.2c-0.2,0.1-0.3,0.3-0.3,0.5
				l-0.4,2.1h6.1l0.3-2l4,4.8l-5.5,4.7l0.4-2.2h-6.3l-1.8,9.1v0v0.1c0,0.1,0,0.2,0.1,0.3c0.1,0.1,0.2,0.1,0.3,0.1h2.8
				c0.1,0,0.3,0,0.4-0.1c0.1-0.1,0.2-0.2,0.2-0.3l1.3-5.5c0.1,0,0.2,0,0.5,0c0.2,0,0.4,0,0.6,0c0.2,0,0.5,0,0.7,0c0.3,0,0.5,0,0.7,0
				c1.5,0,2.9-0.2,4.2-0.5c1.2-0.3,2.3-0.9,3.1-1.7c0.9-0.8,1.5-2.8,1.9-4.3l0.1-0.2c0.1-0.2,0.1-0.5,0.1-0.8V5.3
				C61.4,3.9,60.8,2.8,59.5,2.1"/>
			<path class="st1" d="M66.1,8.7c-0.6,0-1.3,0.1-1.9,0.2C63.6,9,63,9.1,62.3,9.3c-0.2,0-0.3,0.1-0.4,0.1c-0.1,0-0.2-0.1-0.2-0.2
				c0-0.1,0-0.3,0.1-0.6L62,7.4c0-0.1,0-0.2,0.1-0.3c0-0.1,0.1-0.1,0.2-0.2c0.1,0,0.2-0.1,0.4-0.2c1.4-0.5,2.8-0.7,4.3-0.7
				c1.4,0,2.4,0.3,3.1,0.9c0.7,0.6,1.1,1.4,1.1,2.6c0,0.4,0,0.7-0.1,1.1l-1.4,8c0,0.2-0.1,0.3-0.1,0.4c-0.1,0.1-0.2,0.1-0.3,0.2
				c-0.6,0.1-1,0.3-1.4,0.3c-0.3,0.1-0.8,0.1-1.3,0.2c-0.5,0.1-1.1,0.1-1.8,0.1c-3.3,0-5-1.1-5-3.3c0-0.3,0-0.7,0.1-1
				c0.1-0.7,0.3-1.3,0.6-1.8c0.3-0.5,0.6-0.9,1.1-1.2c0.5-0.3,1.1-0.5,1.8-0.7c0.7-0.1,1.6-0.2,2.6-0.2h1.8c0.2-0.9,0.3-1.5,0.3-1.7
				c0-0.5-0.1-0.8-0.4-1C67.2,8.8,66.7,8.7,66.1,8.7 M66.7,17.2l0.6-3.5h-1.8c-0.9,0-1.6,0.1-2,0.4c-0.4,0.3-0.6,0.7-0.7,1.4
				c0,0.2,0,0.4,0,0.6c0,0.5,0.2,0.8,0.5,1c0.3,0.2,0.9,0.3,1.7,0.3C65.6,17.4,66.2,17.3,66.7,17.2"/>
			<path class="st1" d="M76.4,24.3c-0.7,0-1.5-0.1-2.4-0.3c-0.8-0.2-1.5-0.4-2.1-0.7c-0.3-0.1-0.4-0.3-0.4-0.5v-0.2l0.2-1.1
				c0-0.3,0.2-0.4,0.3-0.4c0.1,0,0.2,0,0.2,0c0.6,0.1,1.3,0.3,2,0.4c0.8,0.1,1.5,0.2,2.2,0.2c0.9,0,1.5-0.2,1.9-0.5
				c0.4-0.3,0.6-0.9,0.7-1.6l0-0.2c-0.8,0.2-1.6,0.2-2.2,0.2c-1.5,0-2.7-0.4-3.6-1.1c-0.9-0.7-1.4-1.9-1.4-3.4c0-0.5,0-1,0.1-1.4
				l0.3-1.8c0.3-1.5,0.7-2.6,1.2-3.5c0.6-0.9,1.3-1.5,2.2-1.9c0.9-0.4,2-0.6,3.3-0.6c0.8,0,1.6,0.1,2.4,0.2c0.9,0.1,1.6,0.3,2.3,0.4
				c0.2,0.1,0.3,0.1,0.4,0.2c0.1,0.1,0.1,0.2,0.1,0.3c0,0,0,0.1,0,0.1c0,0,0,0.1,0,0.1l-2.2,12.2c-0.2,1.2-0.5,2.1-1,2.8
				c-0.4,0.7-1,1.2-1.8,1.5C78.7,24.1,77.7,24.3,76.4,24.3 M81.1,8.8c-0.3-0.1-0.6-0.1-1-0.1c-0.4,0-0.8-0.1-1.3-0.1
				c-0.6,0-1.2,0.1-1.6,0.4c-0.4,0.2-0.8,0.6-1,1.1c-0.2,0.5-0.4,1.1-0.6,1.9l-0.3,1.8c-0.1,0.7-0.2,1.2-0.2,1.5
				c0,0.6,0.2,1.1,0.5,1.4c0.3,0.3,0.9,0.5,1.6,0.5c0.6,0,1.4-0.1,2.3-0.2L81.1,8.8z"/>
			<path class="st1" d="M96.9,10.7c0,0.4,0,0.8-0.1,1.2l-0.4,1.9c-0.7,3.9-3,5.9-6.7,5.9c-1,0-1.9-0.2-2.6-0.6
				c-0.7-0.4-1.3-1-1.6-1.7C85.2,16.7,85,15.9,85,15c0-0.4,0-0.8,0.1-1.1l0.4-1.9c0.4-2,1.1-3.4,2.2-4.4c1.1-1,2.6-1.5,4.5-1.5
				c1.1,0,2,0.2,2.7,0.6c0.7,0.4,1.2,1,1.6,1.7C96.8,9.1,96.9,9.9,96.9,10.7 M93.8,10.9c0-0.7-0.2-1.3-0.5-1.6
				c-0.3-0.4-0.9-0.5-1.6-0.5c-0.8,0-1.4,0.3-2,0.8c-0.5,0.5-0.9,1.3-1.1,2.4l-0.4,1.9c-0.1,0.3-0.1,0.7-0.1,1.1
				c0,1.4,0.7,2.1,2.1,2.1c1.7,0,2.7-1.1,3.1-3.2l0.3-1.9C93.8,11.6,93.8,11.3,93.8,10.9"/>
			<path class="st1" d="M53.8,22.2C53.8,22.2,53.8,22.2,53.8,22.2c0,0.1,0,0.1,0,0.2l-0.3,1.5c0,0.1-0.1,0.2-0.2,0.3
				c-0.1,0.1-0.2,0.1-0.4,0.1h-4.9c-0.7,0-1.2,0.1-1.5,0.4c-0.3,0.3-0.6,0.8-0.7,1.6l-0.5,2.6h6.4c0.1,0,0.2,0,0.3,0.1
				c0.1,0.1,0.1,0.2,0.1,0.3v0v0l-0.3,1.7c0,0.1-0.1,0.2-0.2,0.3c-0.1,0.1-0.2,0.1-0.4,0.1h-6.4l-0.5,3.1c0,0.3-0.1,0.6-0.1,0.8
				c0,0.5,0.1,0.8,0.4,1c0.2,0.2,0.7,0.3,1.2,0.3h4.8c0.2,0,0.4,0.1,0.4,0.4v0.1v0l-0.3,1.5c0,0.3-0.2,0.4-0.6,0.5
				c-0.2,0-0.4,0.1-0.7,0.1c-0.3,0-0.6,0.1-1.1,0.1c-0.5,0-0.9,0.1-1.2,0.1c-0.3,0-0.8,0-1.5,0c-1.4,0-2.6-0.3-3.4-0.9
				C41.5,37.9,41,37,41,35.7c0-0.4,0-0.8,0.1-1.1l1.5-8.2c0.2-1,0.5-1.9,0.8-2.5c0.4-0.6,0.8-1.1,1.4-1.5c0.5-0.3,1.1-0.6,1.8-0.7
				c0.7-0.1,1.4-0.2,2.4-0.2c1.3,0,2.2,0,2.8,0.1c0.6,0.1,1.1,0.1,1.7,0.2C53.7,21.9,53.8,22,53.8,22.2"/>
			<path class="st1" d="M63.3,21.5L63.3,21.5L63.1,23c0,0.1-0.1,0.2-0.2,0.3c-0.1,0.1-0.2,0.1-0.3,0.1h-1.1c-0.4,0-0.7,0-0.9,0.1
				c-0.2,0.1-0.4,0.2-0.5,0.4c-0.1,0.2-0.2,0.5-0.3,0.9l-0.2,1.2H62c0.3,0,0.4,0.1,0.4,0.4v0.1l-0.3,1.4c0,0.1-0.1,0.2-0.2,0.3
				c-0.1,0.1-0.2,0.1-0.3,0.1h-2.3l-2,11.1c-0.2,1.1-0.5,1.9-0.9,2.4c-0.4,0.6-0.9,0.9-1.6,1.1c-0.6,0.2-1.4,0.3-2.3,0.3
				c-0.3,0-0.8-0.1-1.4-0.2c-0.1,0-0.2-0.1-0.2-0.1c-0.1-0.1-0.1-0.1-0.1-0.2v0l0.2-1.4c0-0.3,0.2-0.4,0.4-0.4h1.1
				c0.6,0,1-0.1,1.2-0.3c0.2-0.2,0.4-0.6,0.5-1.1l2-11.1l-2.1-0.3c-0.2,0-0.4-0.2-0.4-0.4v-0.1l0.2-1.1c0-0.1,0.1-0.3,0.2-0.3
				c0.1-0.1,0.2-0.1,0.4-0.1h2.1l0.2-1.2c0.2-0.8,0.4-1.5,0.7-2c0.3-0.5,0.6-0.9,1-1.1c0.4-0.2,0.8-0.4,1.3-0.5
				c0.5-0.1,1.1-0.1,1.8-0.1c0.3,0,0.8,0.1,1.4,0.2c0.1,0,0.2,0,0.2,0.1C63.3,21.3,63.3,21.4,63.3,21.5"/>
			<path class="st1" d="M66.3,39.4c-0.8,0-1.5-0.1-2.1-0.3c-0.6-0.2-1.1-0.5-1.6-0.9c-0.4-0.4-0.8-0.9-1-1.5c-0.2-0.6-0.3-1.3-0.3-2
				c0-0.5,0-1,0.1-1.4l0.3-1.5c0.4-2.1,1.1-3.7,2.3-4.6c1.1-0.9,2.6-1.4,4.5-1.4c1.5,0,2.7,0.4,3.5,1.3c0.8,0.9,1.2,2.1,1.2,3.5
				c0,0.4,0,0.8-0.1,1.4l-0.2,1.1c-0.1,0.4-0.3,0.6-0.6,0.6h-7.8c-0.1,0.5-0.1,0.9-0.1,1c0,0.7,0.2,1.2,0.6,1.6
				c0.4,0.4,1.1,0.5,2.1,0.5c1.2,0,2.6-0.2,4.2-0.7c0,0,0.1,0,0.2,0c0.2,0,0.2,0.1,0.2,0.2c0,0.1,0,0.1,0,0.2l-0.3,1.5
				c0,0.2-0.1,0.3-0.2,0.3c-0.1,0.1-0.2,0.2-0.5,0.3c-0.4,0.2-0.8,0.3-1.3,0.4c-0.4,0.1-0.9,0.2-1.5,0.3
				C67.4,39.4,66.9,39.4,66.3,39.4 M70,30.6c0-0.7-0.2-1.2-0.5-1.6c-0.3-0.4-0.9-0.5-1.5-0.5c-1.7,0-2.7,1-3.1,3h5
				C70,31.1,70,30.8,70,30.6"/>
			<path class="st1" d="M78.5,39.4c-0.7,0-1.3-0.1-1.8-0.3c-0.5-0.2-1-0.5-1.5-0.9c-0.4-0.4-0.7-0.9-0.9-1.5
				c-0.2-0.5-0.3-1.2-0.3-1.8c0-0.3,0-0.7,0.1-1.2l0.4-2.2c0.3-1.4,0.7-2.6,1.3-3.4c0.6-0.8,1.3-1.4,2.2-1.8
				c0.8-0.4,1.8-0.5,2.8-0.5c1,0,2.1,0.3,3,0.8c0.3,0.2,0.4,0.3,0.4,0.5v0.1c0,0,0,0,0,0.1l-0.3,1.4c0,0.3-0.2,0.4-0.4,0.4
				c-0.1,0-0.1,0-0.2,0c-1.2-0.3-2.1-0.5-2.7-0.5c-0.8,0-1.5,0.2-2,0.7c-0.5,0.5-0.8,1.3-1.1,2.4l-0.4,2.2c-0.1,0.5-0.1,0.9-0.1,1.2
				c0,0.7,0.2,1.2,0.5,1.5c0.3,0.3,0.9,0.5,1.6,0.5c0.7,0,1.7-0.2,2.9-0.6c0,0,0.1,0,0.2,0c0.2,0,0.2,0.1,0.2,0.2c0,0.1,0,0.1,0,0.2
				l-0.3,1.6c0,0.1-0.1,0.3-0.2,0.4c-0.1,0.1-0.2,0.2-0.4,0.3c-0.4,0.2-0.9,0.3-1.4,0.4C79.7,39.4,79.1,39.4,78.5,39.4"/>
			<path class="st1" d="M93.3,26.3L93.3,26.3l-0.2,1.5c0,0.1-0.1,0.2-0.2,0.3c-0.1,0.1-0.2,0.1-0.4,0.1h-2.1L89,35.7
				c-0.1,0.4-0.1,0.7-0.1,0.8c0,0.2,0.1,0.3,0.2,0.4c0.1,0.1,0.3,0.1,0.6,0.1H91c0.3,0,0.4,0.1,0.4,0.3v0.1l-0.3,1.5
				c0,0.2-0.2,0.4-0.5,0.4c-0.7,0.1-1.2,0.2-1.6,0.2c-1.1,0-1.9-0.2-2.4-0.6c-0.5-0.4-0.8-1.1-0.8-2c0-0.3,0-0.7,0.1-1.2l1.3-7.4
				L85,27.9c-0.3,0-0.4-0.2-0.4-0.4v-0.1l0.2-1.1c0-0.1,0.1-0.3,0.2-0.3c0.1-0.1,0.2-0.1,0.4-0.1h2.2L88,24c0-0.3,0.2-0.4,0.5-0.5
				l2.3-0.4h0.1c0.2,0,0.3,0.1,0.3,0.3v0.1l-0.5,2.4h2.1c0.1,0,0.2,0,0.3,0.1C93.3,26.1,93.3,26.2,93.3,26.3"/>
			<path class="st1" d="M97.8,26.3L97.8,26.3l-2.2,12.4c0,0.1-0.1,0.2-0.2,0.3c-0.1,0.1-0.2,0.2-0.4,0.2h-2.2c-0.1,0-0.2,0-0.3-0.1
				c-0.1-0.1-0.1-0.2-0.1-0.3v-0.1l2.2-12.4c0-0.1,0.1-0.3,0.2-0.3c0.1-0.1,0.2-0.1,0.3-0.1h2.2C97.6,25.9,97.8,26.1,97.8,26.3
				 M98.7,21.5L98.7,21.5l-0.4,2.1c0,0.1-0.1,0.3-0.2,0.3c-0.1,0.1-0.2,0.1-0.4,0.1h-2.3c-0.1,0-0.2,0-0.3-0.1
				C95.1,24,95,23.9,95,23.8v-0.1l0.4-2.1c0-0.1,0.1-0.2,0.2-0.3c0.1-0.1,0.2-0.1,0.4-0.1h2.3C98.6,21.1,98.7,21.3,98.7,21.5"/>
			<path class="st1" d="M111,26.2c0,0.1,0,0.2,0,0.2L106,37.2c-0.4,0.8-0.8,1.4-1.4,1.7c-0.6,0.3-1.2,0.5-1.9,0.5
				c-1.6,0-2.4-0.7-2.6-2.2L99,26.5v0c0-0.1,0-0.2,0.1-0.3c0.1-0.1,0.2-0.2,0.3-0.2h2.3c0.2,0,0.4,0.2,0.4,0.5l0.5,9.9
				c0,0.4,0.1,0.6,0.4,0.6c0.2,0,0.4-0.2,0.5-0.6l4-9.9c0.1-0.3,0.3-0.5,0.6-0.5h2.5C110.9,25.9,111,26,111,26.2"/>
			<path class="st1" d="M121.7,30.4c0,0.4,0,0.8-0.1,1.2l-0.4,1.9c-0.7,3.9-3,5.9-6.7,5.9c-1,0-1.9-0.2-2.6-0.6
				c-0.7-0.4-1.3-1-1.6-1.7c-0.4-0.7-0.5-1.5-0.5-2.4c0-0.4,0-0.8,0.1-1.1l0.4-1.9c0.4-2,1.1-3.4,2.2-4.4c1.1-1,2.6-1.5,4.5-1.5
				c1.1,0,2,0.2,2.7,0.6c0.7,0.4,1.2,1,1.6,1.7C121.5,28.8,121.7,29.6,121.7,30.4 M118.5,30.6c0-0.7-0.2-1.3-0.5-1.6
				c-0.3-0.4-0.9-0.5-1.6-0.5c-0.8,0-1.4,0.3-2,0.8c-0.5,0.5-0.9,1.3-1.1,2.4l-0.4,1.9c-0.1,0.3-0.1,0.7-0.1,1
				c0,1.4,0.7,2.2,2.1,2.2c1.7,0,2.7-1.1,3.1-3.2l0.3-1.9C118.5,31.3,118.5,31,118.5,30.6"/>
			<path class="st2" d="M5.3,2c0,0,24.1,7.4,31.9,16c0,0-18.8,19.3-30.4,22.8c0,0-7.3-18.4-5-35.1C1.7,5.7,2.1,0.9,5.3,2"/>
			<path class="st3" d="M7.4,40.6c0,0,15.4-4.2,29.2-16c0,0,2.7-1.9,1.7-5.1c-0.5-1.6-3.1-3.5-3.5-3.9C34.9,15.6,35.2,25.5,7.4,40.6
				"/>
			<path class="st4" d="M37,17.5c0,0-11.3-11.1-28.5-17.1c0,0-3-1.3-5.3,1.1c-1.1,1.2-1.6,4.4-1.7,5C1.5,6.5,9.9,1.2,37,17.5"/>
			<path class="st5" d="M2.1,4C2.1,4-2,19,1.3,36.9c0,0,0.6,3.6,3.7,4c1.9,0.2,3.4-0.4,5.3-1.2C10.3,39.7,1.2,35.4,2.1,4"/>
			<path class="st6" d="M24.5,11.4c-1.6-1-3.8-1.4-6.6-1.4c-2.7,0-5.1,0.1-7.1,0.4c-0.4,0.1-0.7,0.1-0.9,0.3
				c-0.2,0.1-0.4,0.3-0.4,0.6L8.9,14h7.8l0.4-2.5l5.1,6.1l-7,6l0.5-2.8H7.5L5.1,32.5v0v0.1c0,0.2,0,0.3,0.2,0.4
				c0.1,0.1,0.2,0.1,0.4,0.1h3.6c0.2,0,0.4-0.1,0.5-0.2c0.2-0.1,0.3-0.3,0.3-0.4l1.6-7c0.1,0,0.3,0,0.6,0c0.3,0,0.5,0,0.8,0
				c0.3,0,0.6,0,0.9,0c0.3,0,0.6,0,0.8,0c2,0,3.7-0.2,5.3-0.6c1.6-0.4,2.9-1.1,4-2.2c1.1-1.1,1.9-3.6,2.4-5.5l0.1-0.3
				c0.1-0.3,0.1-0.6,0.1-1.1v-0.5C26.8,13.8,26,12.4,24.5,11.4"/>
		</g>
	</g>
</g>
</svg>
